# xmcd
#
# Track frame offsets:
#	150
#	11764
#	22964
#	31528
#	44331
#	57542
#	63644
#	75535
#	85654
#	97723
#	108754
#	120736
#	136139
#	147175
#	160528
#	169999
#	186085
#	199565
#	217303
#	227446
#	235121
#	244569
#
# Disc length: 3429
#
# Revision: 1
# Processed by: cddbd v1.5.1PL0 Copyright (c) Steve Scherf et al.
# Submitted via: NeoAudio 9.9.9
# Normalized: r0:TDELIM( - )
#
DISCID=120d6316
DTITLE=Various Artist - Country Triple Treasures - cd3 - Always on my Mind
DYEAR=1900
DGENRE=Country
TTITLE0=Guy Mitchell - Heartaces by the number
TTITLE1=Roy Drusky - Blue eyes crying in the rain
TTITLE2=Waylon Jennings - Abilene
TTITLE3=Kitty Wells - Making belive
TTITLE4=Donna Fargo - Daddy
TTITLE5=Jim Reeves - Have I told you lately that I love you
TTITLE6=Conway Twitty - Sittin' in a dim café
TTITLE7=Buck owens - Rhythm and booze
TTITLE8=Wanda Jackson - Right or wrong
TTITLE9=Don Davis Jr. - Minnesota Bay
TTITLE10=Hank Williams - Long gone lonesome blues
TTITLE11=Merle Haggard - San Antonio rose
TTITLE12=Tammy Wynette - D I V O R C E
TTITLE13=Mickey Gilley - Room full of roses
TTITLE14=Rusty Draper - I'm a ramblin' man
TTITLE15=Willie Nelson - Always on my mind
TTITLE16=Jimmy Dean - Big bad John
TTITLE17=Johnny Lee - Looking for love
TTITLE18=Bredna Lee - I'm sorry
TTITLE19=Bill Monroe - Footprints in the snow
TTITLE20=Roger Miller - Chug- a lug
TTITLE21=Bobby Bare - Four strong winds
EXTD=
EXTT0=
EXTT1=
EXTT2=
EXTT3=
EXTT4=
EXTT5=
EXTT6=
EXTT7=
EXTT8=
EXTT9=
EXTT10=
EXTT11=
EXTT12=
EXTT13=
EXTT14=
EXTT15=
EXTT16=
EXTT17=
EXTT18=
EXTT19=
EXTT20=
EXTT21=
PLAYORDER=
